# xmcd CD database file
#
# Track frame offsets:
#	150
#	23065
#	43387
#	65750
#	82705
#	102282
#	120207
#	140000
#	161170
#	177202
#	197450
#	220777
#	239312
#
# Disc length: 3515 seconds
#
# Revision: 0
# Processed by: cddbd v1.5.2PL0 Copyright (c) Steve Scherf et al.
# Submitted via: CDex 1.70beta3
#
DISCID=ac0db90d
DTITLE=スピッツ - RECYCLE Greatest Hits of SPITZ
DYEAR=1900
DGENRE=ロック
TTITLE0=君が思い出になる前に
TTITLE1=空も飛べるはず
TTITLE2=青い車
TTITLE3=スパイダー
TTITLE4=ロビンソン
TTITLE5=涙がキラリ☆
TTITLE6=チェリー
TTITLE7=渚
TTITLE8=スカーレット
TTITLE9=夢じゃない
TTITLE10=運命の人
TTITLE11=冷たい頬
TTITLE12=楓
EXTD=
EXTT0=
EXTT1=
EXTT2=
EXTT3=
EXTT4=
EXTT5=
EXTT6=
EXTT7=
EXTT8=
EXTT9=
EXTT10=
EXTT11=
EXTT12=
PLAYORDER=
